<svg width="10" height="9" viewBox="0 0 10 9" fill="none" xmlns="http://www.w3.org/2000/svg">
<path d="M1.58233 3.64645L1.93588 3.29289L1.58233 3.64645ZM5.35356 7.41768L5.00001 7.77124L5.35356 7.41768ZM5.35356 8.12479L5.70712 8.47834L5.35356 8.12479ZM4.64646 8.12479L5.00001 7.77124L4.64646 8.12479ZM0.875221 4.35355L0.521667 4.70711L0.875221 4.35355ZM1.93588 3.29289C1.54536 2.90237 0.912192 2.90237 0.521667 3.29289L1.22877 4H1.22877L1.93588 3.29289ZM5.70712 7.06413L1.93588 3.29289L1.22877 4L5.00001 7.77124L5.70712 7.06413ZM5.70712 8.47834C6.09764 8.08782 6.09764 7.45465 5.70712 7.06413L5.00001 7.77124L5.00001 7.77124L5.70712 8.47834ZM4.2929 8.47834C4.68343 8.86887 5.31659 8.86887 5.70712 8.47834L5.00001 7.77124L5.00001 7.77124L4.2929 8.47834ZM0.521667 4.70711L4.2929 8.47834L5.00001 7.77124L1.22877 4L0.521667 4.70711ZM0.521667 3.29289C0.131143 3.68342 0.131143 4.31658 0.521667 4.70711L1.22877 4V4L0.521667 3.29289ZM4.2929 7.06413C3.90238 7.45465 3.90238 8.08782 4.2929 8.47834L5.00001 7.77124L4.2929 7.06413ZM8.06414 3.29289L4.2929 7.06413L5.00001 7.77124L8.77125 4L8.06414 3.29289ZM9.47835 3.29289C9.08783 2.90237 8.45466 2.90237 8.06414 3.29289L8.77125 4L9.47835 3.29289ZM9.47835 4.70711C9.86888 4.31658 9.86888 3.68342 9.47835 3.29289L8.77125 4L9.47835 4.70711ZM5.70712 8.47834L9.47835 4.70711L8.77125 4L5.00001 7.77124L5.70712 8.47834ZM4.2929 8.47834C4.68343 8.86887 5.31659 8.86887 5.70712 8.47834L5.00001 7.77124L4.2929 8.47834Z" fill="#4F4F4F"/>
</svg>
